<svg width="200" height="59" viewBox="0 0 200 59" fill="none" xmlns="http://www.w3.org/2000/svg">
<g clip-path="url(#clip0_371:2529)">
<path d="M9.9008 20.8381C8.65771 21.9503 7.04991 22.568 5.38193 22.5742C1.90971 22.5742 0 20.6645 0 18.0554C0 14.9304 2.25695 12.6734 9.55357 12.6734C9.55357 10.9373 8.51191 9.89564 6.94941 9.89564C6.4045 9.85451 5.8624 10.0057 5.41741 10.3229C4.97243 10.6401 4.65271 11.1032 4.51388 11.6318H0.545623C0.892845 8.65556 3.32342 6.24982 7.32143 6.24982C8.15098 6.217 8.97835 6.35621 9.75148 6.65869C10.5246 6.96117 11.2268 7.42039 11.8138 8.00743C12.4009 8.59447 12.8601 9.29662 13.1625 10.0698C13.465 10.8429 13.6042 11.6703 13.5714 12.4998V22.4204H10.5952L9.9008 20.8381ZM9.55357 15.4512C4.86608 15.4512 3.99305 16.3193 3.99305 17.7081C3.99305 18.5812 4.86608 19.4492 6.08135 19.4492C8.16469 19.4492 9.55357 18.0554 9.55357 16.1457V15.4512Z" fill="#354C57"/>
<path d="M17.1885 6.4236H20.1398L20.8343 7.98611C21.8383 6.93989 23.2053 6.31852 24.6537 6.25C27.9573 6.25 29.1726 8.33334 29.1726 8.33334C29.1726 8.33334 31.0823 6.25 33.8601 6.25C37.3323 6.25 39.5893 8.50694 39.5893 12.8472V22.4008H35.621V13.1944C35.621 11.2847 34.4057 10.0695 33.0168 10.0695C31.6279 10.0695 30.4127 11.2847 30.4127 13.1944V22.4008H26.4196V13.1944C26.4196 11.2847 25.2043 10.0695 23.8105 10.0695C22.4166 10.0695 21.2063 11.2847 21.2063 13.1944V22.4008H17.2381L17.1885 6.4236Z" fill="#354C57"/>
<path d="M49.9995 0.545898H54.1662V22.4259H49.9995V0.545898Z" fill="#354C57"/>
<path d="M65.2769 2.25695C65.2769 1.81057 65.4092 1.37422 65.6572 1.00307C65.9052 0.631915 66.2577 0.34262 66.6701 0.171797C67.0825 0.000974208 67.5363 -0.0437158 67.9741 0.0433689C68.4119 0.130454 68.8141 0.345408 69.1297 0.661047C69.4453 0.976686 69.6603 1.37882 69.7474 1.81663C69.8345 2.25443 69.7898 2.70825 69.619 3.12065C69.4481 3.53305 69.1589 3.88555 68.7877 4.13354C68.4166 4.38154 67.9802 4.51389 67.5338 4.51389C66.9384 4.50369 66.3702 4.26263 65.9492 3.84157C65.5281 3.4205 65.2871 2.85235 65.2769 2.25695ZM65.4505 6.4236H69.4435V22.4008H65.4505V6.4236Z" fill="#F06356"/>
<path d="M73.2651 6.4236H76.2413L76.9159 7.98611C78.1831 6.91724 79.773 6.30573 81.4298 6.25C85.2492 6.25 87.8534 8.85418 87.8534 13.0208V22.4008H83.8852V13.5417C83.8852 11.4583 82.4963 10.0695 80.5866 10.0695C78.6768 10.0695 77.2879 11.4583 77.2879 13.5417V22.4008H73.2949L73.2651 6.4236Z" fill="#F06356"/>
<path d="M91.4913 10.4166H89.5815V6.77079H91.4913V6.07636C91.4913 2.60414 93.7482 0.347168 96.8732 0.347168C97.5249 0.353446 98.1708 0.470878 98.783 0.694396V4.16662C98.4516 4.04496 98.0984 3.99426 97.7462 4.01782C97.4438 3.99392 97.1397 4.03591 96.8551 4.14088C96.5704 4.24586 96.3119 4.41129 96.0973 4.62584C95.8828 4.84038 95.7173 5.0989 95.6124 5.38357C95.5074 5.66824 95.4654 5.97229 95.4893 6.27475V6.77079H98.7879V10.4166H95.4893V22.4008H91.4962L91.4913 10.4166Z" fill="#F06356"/>
<path d="M115.604 17.5347C115.067 18.9961 114.099 20.26 112.828 21.1598C111.557 22.0595 110.043 22.5528 108.486 22.5744C106.356 22.5219 104.331 21.6389 102.844 20.1139C101.356 18.5889 100.523 16.5428 100.523 14.4122C100.523 12.2817 101.356 10.2355 102.844 8.71048C104.331 7.18549 106.356 6.30251 108.486 6.25C112.653 6.25 116.125 9.54862 116.125 14.4097C116.111 14.9342 116.054 15.4567 115.957 15.9722H104.86C105.208 17.5347 106.423 18.755 108.506 18.755C110.59 18.755 111.458 17.5347 111.458 17.5347H115.604ZM112.306 13.1944C112.126 12.3146 111.647 11.5239 110.951 10.9562C110.255 10.3884 109.385 10.0783 108.486 10.0783C107.588 10.0783 106.718 10.3884 106.022 10.9562C105.326 11.5239 104.847 12.3146 104.667 13.1944H112.306Z" fill="#F06356"/>
<path d="M132.967 16.4931C132.273 19.623 129.322 22.5744 125.527 22.5744C123.397 22.5219 121.372 21.6389 119.884 20.1139C118.396 18.5889 117.563 16.5428 117.563 14.4122C117.563 12.2817 118.396 10.2355 119.884 8.71048C121.372 7.18549 123.397 6.30251 125.527 6.25C129.346 6.25 132.298 9.22619 132.967 12.3264H128.999C128.705 11.6512 128.22 11.0772 127.602 10.676C126.985 10.2747 126.263 10.0638 125.527 10.0695C123.27 10.0695 121.559 11.8056 121.559 14.4097C121.559 17.0139 123.295 18.755 125.527 18.755C126.264 18.7602 126.986 18.5486 127.603 18.1464C128.221 17.7442 128.706 17.1692 128.999 16.4931H132.967Z" fill="#F06356"/>
<path d="M136.284 10.0693H133.853V6.77065H134.895C135.152 6.79799 135.413 6.7674 135.657 6.6811C135.901 6.59479 136.123 6.45496 136.306 6.27187C136.489 6.08877 136.629 5.86705 136.715 5.62291C136.801 5.37878 136.832 5.11843 136.804 4.86094V2.604H140.277V6.42342H143.749V10.0693H140.277V16.6665C140.253 16.969 140.295 17.273 140.4 17.5577C140.505 17.8423 140.67 18.1009 140.885 18.3154C141.099 18.53 141.358 18.6954 141.642 18.8004C141.927 18.9053 142.231 18.9473 142.534 18.9234C142.889 18.9395 143.243 18.8821 143.575 18.7548V22.227C142.963 22.4505 142.317 22.5679 141.666 22.5742C138.541 22.5742 136.284 20.3173 136.284 16.8401V10.0693Z" fill="#F06356"/>
<path d="M160.939 17.5347C160.4 18.9992 159.429 20.2653 158.155 21.1653C156.88 22.0654 155.362 22.5568 153.801 22.5744C151.671 22.5219 149.646 21.6389 148.159 20.1139C146.671 18.5889 145.838 16.5428 145.838 14.4122C145.838 12.2817 146.671 10.2355 148.159 8.71048C149.646 7.18549 151.671 6.30251 153.801 6.25C157.968 6.25 161.44 9.54862 161.44 14.4097C161.425 14.9344 161.367 15.457 161.267 15.9722H150.156C150.503 17.5347 151.718 18.755 153.801 18.755C155.885 18.755 156.778 17.5347 156.778 17.5347H160.939ZM157.641 13.1944C157.46 12.3146 156.982 11.5239 156.286 10.9562C155.59 10.3884 154.719 10.0783 153.821 10.0783C152.923 10.0783 152.052 10.3884 151.357 10.9562C150.661 11.5239 150.182 12.3146 150.002 13.1944H157.641Z" fill="#F06356"/>
<path d="M175.521 20.8385C174.28 21.95 172.674 22.5677 171.007 22.5747C167.014 22.5747 163.542 19.1025 163.542 14.41C163.542 9.71753 167.014 6.25026 171.007 6.25026C172.541 6.24134 174.024 6.79758 175.174 7.81278V0.545898H179.167V22.4259H176.191L175.521 20.8385ZM175.521 14.3901C175.521 11.786 173.785 10.0499 171.553 10.0499C169.321 10.0499 167.585 11.786 167.585 14.3901C167.585 16.9943 169.321 18.7354 171.553 18.7354C173.785 18.7354 175.521 17.0191 175.521 14.4348V14.3901Z" fill="#F06356"/>
<path d="M190.973 16.3194C190.973 9.89579 195.834 9.89579 195.834 6.77078C195.834 5.20828 194.792 4.16662 193.056 4.16662C191.494 4.16662 190.278 5.38191 190.278 7.46524H186.112C186.285 3.12496 189.063 0.347168 193.056 0.347168C197.397 0.347168 200.001 2.95133 200.001 6.42356C200.001 11.2847 194.966 11.2847 194.966 16.3194H190.973ZM193.056 18.0555C193.504 18.0545 193.942 18.1864 194.314 18.4343C194.687 18.6823 194.978 19.0352 195.149 19.4484C195.321 19.8616 195.367 20.3166 195.28 20.7556C195.194 21.1947 194.979 21.5982 194.662 21.9151C194.346 22.2319 193.943 22.4478 193.504 22.5355C193.065 22.6232 192.61 22.5787 192.197 22.4076C191.783 22.2366 191.43 21.9466 191.181 21.5746C190.932 21.2025 190.799 20.765 190.799 20.3174C190.809 19.7215 191.05 19.1528 191.471 18.731C191.892 18.3091 192.46 18.067 193.056 18.0555Z" fill="#354C57"/>
<path d="M55.8038 0.520996H48.3633V3.49719H55.8038V0.520996Z" fill="#354C57"/>
<path d="M55.8038 19.4194H48.3633V22.3956H55.8038V19.4194Z" fill="#354C57"/>
</g>
<g clip-path="url(#clip1_371:2529)">
<path d="M103.586 50.0489V49.3577H102.623V48.544H103.586V47.7419L104.645 47.7886C104.741 47.7886 104.843 47.844 104.843 47.9111C104.843 47.9782 104.788 48.0161 104.653 48.0803V48.5352H105.528V47.7419L106.608 47.8003C106.663 47.8003 106.797 47.8265 106.797 47.9228C106.797 48.019 106.739 48.0161 106.608 48.0744V48.5557H107.92V49.3694H106.608V50.0606H108.066V50.9006H105.674V51.411H107.602V54.6892H106.497C106.988 55.0654 107.542 55.3526 108.133 55.538C107.886 55.787 107.681 56.0746 107.526 56.3896C106.784 56.1059 106.102 55.6866 105.514 55.153L105.986 54.6892H104.464L104.861 55.0392C104.892 55.0611 104.92 55.0891 104.941 55.1217C104.962 55.1542 104.976 55.1907 104.983 55.2288C104.983 55.3134 104.89 55.3309 104.616 55.3134C104.069 55.7659 103.465 56.1444 102.819 56.4392C102.612 56.1439 102.371 55.8737 102.101 55.6342C102.723 55.4169 103.305 55.0976 103.822 54.6892H102.723V51.3993H104.607V50.8889H102.215V50.2735H101.469V50.501C101.761 51.1536 102.172 51.7468 102.679 52.251C102.41 52.4701 102.201 52.7542 102.072 53.0764C101.846 52.7752 101.648 52.454 101.48 52.1168V56.4275H100.468V52.7789C100.308 53.2507 100.099 53.7043 99.844 54.1322C99.6108 53.8569 99.3327 53.6232 99.0215 53.4409C99.7382 52.5074 100.236 51.425 100.48 50.2735H99.3131V49.3111H100.48V47.6836L101.471 47.7419C101.594 47.7419 101.708 47.7886 101.708 47.8907C101.708 47.9928 101.565 48.0336 101.492 48.0715V49.3111H102.408V50.0489H103.586ZM103.784 52.6739H104.618V52.2014H103.79L103.784 52.6739ZM104.618 53.8668V53.3855H103.79V53.8668H104.618ZM105.54 50.0489V49.3577H104.665V50.0489H105.54ZM105.692 52.2014V52.6739H106.543V52.2014H105.692ZM106.543 53.3855H105.686V53.8668H106.538L106.543 53.3855Z" fill="black"/>
<path d="M110.734 55.7098C111.437 54.7381 112.024 53.6878 112.484 52.5803C112.732 52.8705 113.028 53.1161 113.359 53.3066C112.951 54.2375 112.483 55.1407 111.956 56.0102C111.991 56.0755 112.013 56.1468 112.021 56.2202C112.021 56.2873 111.965 56.3136 111.907 56.3136C111.837 56.308 111.769 56.286 111.709 56.2494L110.734 55.7098ZM111.347 50.2179C111.969 50.5043 112.563 50.847 113.123 51.2416C112.892 51.5378 112.686 51.853 112.508 52.1837C111.962 51.8103 111.383 51.4881 110.778 51.2212L111.347 50.2179ZM112.026 47.9575C112.635 48.2139 113.202 48.561 113.706 48.9871C113.47 49.2787 113.167 49.725 113.036 49.9146C112.52 49.5202 111.973 49.169 111.399 48.8646L112.026 47.9575ZM118.268 52.7495H119.647V53.782H117.72C118.34 54.509 119.082 55.1228 119.913 55.5961C119.598 55.8504 119.312 56.139 119.061 56.4565C118.188 55.8706 117.407 55.1569 116.745 54.339L117.498 53.782H115.296L116.107 54.3303C116.13 54.3398 116.15 54.3554 116.166 54.3754C116.181 54.3953 116.191 54.419 116.194 54.444C116.194 54.5374 116.063 54.5957 115.903 54.5665C115.317 55.309 114.611 55.9479 113.814 56.4565C113.524 56.1433 113.193 55.8697 112.831 55.6427C113.702 55.1696 114.478 54.5386 115.118 53.782H113.415V52.7495H114.275V48.325L114.803 48.4388C116.027 48.4392 117.239 48.2025 118.373 47.7417L119.044 48.6575C119.093 48.7111 119.126 48.7781 119.137 48.85C119.137 48.9229 119.052 48.9433 118.994 48.9433C118.892 48.9365 118.792 48.9076 118.702 48.8588C117.629 49.1677 116.521 49.3421 115.404 49.3779V50.075H119.382V51.1249H118.259L118.268 52.7495ZM117.16 51.1337H115.41V52.7495H117.16V51.1337Z" fill="black"/>
<path d="M124.051 55.9255V56.3688H122.885V48.0332H130.949V56.3601H129.806V55.9255H124.051ZM129.818 54.8872V49.0278H124.051V54.8872H129.818ZM127.446 51.3406H129.071V52.2156H128.581C128.824 52.4866 129.042 52.7795 129.231 53.0906C129.158 53.1372 128.91 53.3093 128.75 53.4231H129.535V54.3389H124.372V53.4318H126.312V52.2185H124.789V51.3435H126.303V50.4686H124.468V49.5732H129.427V50.4802H127.432L127.446 51.3406ZM128.222 52.2156H127.446V53.4289H128.266C128.089 53.1407 127.887 52.8684 127.662 52.6152L128.222 52.2156Z" fill="black"/>
<path d="M142.581 55.0101V56.1272H133.959V55.0101H138.439C138.919 53.6717 139.289 52.2963 139.545 50.8978L140.726 51.2186C140.784 51.239 140.886 51.2652 140.886 51.3615C140.886 51.4577 140.813 51.4636 140.679 51.5132C140.583 51.8719 140.16 53.3477 140.067 53.6481C139.839 54.386 139.714 54.7185 139.612 55.0101H142.581ZM137.646 47.7012L138.865 47.7303C138.912 47.7303 139.043 47.7303 139.043 47.8441C139.043 47.9578 138.979 47.9666 138.883 48.0162V49.492H142.117V50.5973H134.374V49.492H137.646V47.7012ZM136.511 51.0669C137.03 52.1148 137.404 53.2285 137.623 54.3772C137.398 54.4327 136.64 54.6514 136.479 54.6981C136.313 53.5576 135.958 52.4528 135.429 51.4286L136.511 51.0669Z" fill="black"/>
<path d="M145.311 51.2417V50.0751H149.015V47.6543L150.254 47.7214C150.397 47.7214 150.461 47.768 150.461 47.8439C150.461 47.9197 150.359 47.9664 150.254 47.9955V50.0751H153.903V51.2417H150.284C150.709 52.63 151.579 54.342 154.037 55.5816C153.664 55.819 153.35 56.1382 153.118 56.5149C152.109 56.0599 150.494 54.6716 149.651 52.7904C148.904 54.4653 147.558 55.8002 145.877 56.5324C145.683 56.1211 145.395 55.7613 145.037 55.4824C145.83 55.1704 148.28 54.1875 148.884 51.2388L145.311 51.2417Z" fill="black"/>
<path d="M165.473 53.1844V54.1585H161.874V55.4447C161.874 56.4393 161.174 56.4743 159.64 56.4568C159.573 56.0639 159.449 55.6827 159.273 55.3252C159.433 55.3252 160.148 55.3631 160.302 55.3631C160.71 55.3631 160.71 55.3077 160.71 54.8148V54.1585H157.006V53.1844H160.71V52.4961L161.203 52.5602C161.512 52.324 161.883 52.0323 162.043 51.9011H158.707V50.9503H163.414L163.755 51.6211C163.172 52.1948 162.543 52.7196 161.874 53.1902L165.473 53.1844ZM160.842 49.4512C160.597 48.9462 160.282 48.4787 159.905 48.0629L160.917 47.5991C161.288 48.0186 161.605 48.4819 161.862 48.9787C161.76 49.037 161.014 49.422 160.973 49.4512H162.373C162.798 48.9403 163.169 48.386 163.478 47.7974L164.604 48.1649C164.662 48.1854 164.756 48.2233 164.756 48.3079C164.756 48.3924 164.604 48.4391 164.435 48.4595C164.102 48.9787 163.878 49.282 163.755 49.4512H165.38V51.8515H164.254V50.367H158.205V51.8603H157.1V49.4512H158.538C158.302 49.0409 158.032 48.6507 157.733 48.2845L158.686 47.7916C159.056 48.1837 159.369 48.6266 159.614 49.107C159.4 49.2008 159.195 49.311 158.998 49.4366L160.842 49.4512Z" fill="black"/>
<path d="M66.0907 46.7765C66.0609 46.7151 66.0145 46.6631 65.9568 46.6265C65.8991 46.59 65.8323 46.5702 65.764 46.5694H63.3112C63.2555 46.5681 63.2003 46.5794 63.1498 46.6027C63.0992 46.626 63.0547 46.6605 63.0195 46.7036L59.7996 51.2185L56.5418 46.7007C56.5059 46.6586 56.4611 46.625 56.4107 46.6023C56.3603 46.5796 56.3054 46.5684 56.2501 46.5694H53.8352C53.7668 46.5699 53.6999 46.5895 53.6421 46.6261C53.5843 46.6627 53.538 46.7148 53.5085 46.7765C53.4802 46.8383 53.4696 46.9067 53.4778 46.9742C53.486 47.0416 53.5128 47.1055 53.5552 47.1586L58.4434 53.7122V57.2733C58.443 57.3209 58.4521 57.3681 58.4701 57.4122C58.4881 57.4562 58.5148 57.4963 58.5484 57.5299C58.5821 57.5636 58.6221 57.5902 58.6662 57.6083C58.7102 57.6263 58.7574 57.6354 58.805 57.635H60.7941C60.8417 57.6352 60.8889 57.6261 60.9329 57.6081C60.977 57.5901 61.017 57.5635 61.0508 57.53C61.1177 57.4613 61.1554 57.3693 61.1558 57.2733V53.7122L66.0411 47.1586C66.0842 47.1059 66.1117 47.0422 66.1205 46.9746C66.1292 46.9071 66.1189 46.8385 66.0907 46.7765Z" fill="#005BAC"/>
<path d="M71.1246 46.5752C71.1989 46.5802 71.2691 46.6112 71.3229 46.6627L77.2495 53.2075C77.2932 53.2571 77.3282 53.2425 77.3282 53.1783V46.6889C77.3282 46.6572 77.3408 46.6268 77.3632 46.6044C77.3857 46.5819 77.4161 46.5693 77.4478 46.5693H79.819C79.8507 46.5693 79.8811 46.5819 79.9035 46.6044C79.9259 46.6268 79.9385 46.6572 79.9385 46.6889V57.4803C79.9386 57.4959 79.9354 57.5113 79.9294 57.5256C79.9234 57.54 79.9145 57.553 79.9034 57.5638C79.8922 57.5747 79.879 57.5832 79.8645 57.5889C79.85 57.5946 79.8345 57.5974 79.819 57.597H77.8328C77.7589 57.5936 77.689 57.5624 77.6374 57.5095L71.1742 50.3026C71.1304 50.2559 71.0954 50.2676 71.0954 50.3347V57.4861C71.0955 57.5017 71.0923 57.5171 71.0863 57.5315C71.0803 57.5458 71.0714 57.5588 71.0603 57.5697C71.0491 57.5805 71.0359 57.5891 71.0214 57.5948C71.0069 57.6005 70.9914 57.6032 70.9759 57.6028H68.6572C68.6416 57.6032 68.6261 57.6005 68.6116 57.5948C68.5971 57.5891 68.5839 57.5805 68.5728 57.5697C68.5616 57.5588 68.5528 57.5458 68.5467 57.5315C68.5407 57.5171 68.5376 57.5017 68.5376 57.4861V46.6947C68.5376 46.663 68.5502 46.6326 68.5726 46.6102C68.595 46.5878 68.6255 46.5752 68.6572 46.5752H71.1246Z" fill="black"/>
<path d="M93.5823 46.5752H91.2315C91.2003 46.5752 91.1703 46.5874 91.148 46.6092C91.1256 46.631 91.1127 46.6607 91.1119 46.6919V52.8167C91.1119 53.75 90.8436 54.275 90.4032 54.6338C89.9628 54.9925 89.2045 55.2171 88.1457 55.2171C87.087 55.2171 86.3375 54.9838 85.8883 54.6338C85.4391 54.2838 85.1883 53.7588 85.1766 52.8167V46.6919C85.1767 46.6763 85.1735 46.6609 85.1675 46.6466C85.1615 46.6322 85.1526 46.6192 85.1415 46.6084C85.1303 46.5975 85.1171 46.5889 85.1026 46.5833C85.0881 46.5776 85.0726 46.5748 85.0571 46.5752H82.7092C82.678 46.5752 82.648 46.5874 82.6257 46.6092C82.6033 46.631 82.5904 46.6607 82.5896 46.6919V52.8167C82.5721 54.6979 83.3859 56.025 84.5204 56.7483C85.655 57.4716 86.9791 57.6233 88.1457 57.6233C89.3124 57.6233 90.6423 57.4483 91.7711 56.7483C92.8998 56.0483 93.7164 54.7067 93.6989 52.8167V46.6919C93.6989 46.661 93.6866 46.6313 93.6648 46.6094C93.6429 46.5875 93.6132 46.5752 93.5823 46.5752Z" fill="black"/>
</g>
<path d="M34.5269 56.6054H35.6437L35.8671 56.1028C35.8671 56.1028 36.4255 56.6613 37.319 56.6613C38.6033 56.6613 39.7202 55.5444 39.7202 54.0367C39.7202 52.529 38.6033 51.4121 37.319 51.4121C36.5372 51.4121 36.0346 51.8589 36.0346 51.8589V49.5693H34.5269V56.6054ZM37.0956 55.2652C36.4813 55.2652 35.9787 54.7626 35.9787 54.0367C35.9787 53.3108 36.4813 52.8082 37.0956 52.8082C37.7098 52.8082 38.2124 53.3108 38.2124 54.0367C38.2124 54.7626 37.7098 55.2652 37.0956 55.2652Z" fill="#677881"/>
<path d="M40.9478 58.3924C40.9478 58.3924 41.227 58.4482 41.4504 58.4482C42.3997 58.4482 42.947 57.8898 43.4607 56.6054L45.5269 51.468H43.9074L42.7906 54.651L41.6738 51.468H40.0543L42.0088 56.3821C41.8413 56.8288 41.5621 57.108 40.9478 57.108V58.3924Z" fill="#677881"/>
<defs>
<clipPath id="clip0_371:2529">
<rect width="200" height="22.5694" fill="white"/>
</clipPath>
<clipPath id="clip1_371:2529">
<rect width="112" height="11.0685" fill="white" transform="translate(53.4731 46.5693)"/>
</clipPath>
</defs>
</svg>
