<svg width="303" height="20" viewBox="0 0 303 20" fill="none" xmlns="http://www.w3.org/2000/svg">
<g clip-path="url(#clip0_380:474)">
<path d="M241.113 10.4796V9.78838H240.15V8.97465H241.113V8.17259L242.172 8.21926C242.268 8.21926 242.37 8.27467 242.37 8.34175C242.37 8.40883 242.314 8.44675 242.18 8.51091V8.9659H243.055V8.17259L244.134 8.23092C244.19 8.23092 244.324 8.25717 244.324 8.35342C244.324 8.44967 244.266 8.44675 244.134 8.50508V8.98632H245.447V9.80005H244.134V10.4913H245.593V11.3313H243.201V11.8417H245.129V15.1199H244.024C244.515 15.496 245.069 15.7833 245.66 15.9686C245.413 16.2176 245.208 16.5053 245.053 16.8203C244.311 16.5366 243.629 16.1172 243.041 15.5836L243.513 15.1199H241.991L242.387 15.4699C242.419 15.4918 242.447 15.5198 242.468 15.5524C242.489 15.5849 242.503 15.6213 242.51 15.6595C242.51 15.7441 242.417 15.7616 242.142 15.7441C241.595 16.1965 240.991 16.5751 240.346 16.8699C240.139 16.5745 239.898 16.3044 239.628 16.0649C240.25 15.8476 240.832 15.5282 241.349 15.1199H240.249V11.83H242.134V11.3196H239.742V10.7042H238.995V10.9317C239.288 11.5843 239.698 12.1775 240.206 12.6816C239.937 12.9007 239.728 13.1848 239.599 13.507C239.373 13.2058 239.175 12.8847 239.007 12.5475V16.8582H237.995V13.2095C237.835 13.6814 237.626 14.135 237.371 14.5628C237.138 14.2876 236.86 14.0539 236.548 13.8716C237.265 12.938 237.763 11.8557 238.007 10.7042H236.84V9.74172H238.007V8.11426L238.998 8.17259C239.121 8.17259 239.235 8.21925 239.235 8.32134C239.235 8.42342 239.092 8.46425 239.019 8.50216V9.74172H239.935V10.4796H241.113ZM241.311 13.1045H242.145V12.6321H241.317L241.311 13.1045ZM242.145 14.2974V13.8162H241.317V14.2974H242.145ZM243.067 10.4796V9.78838H242.192V10.4796H243.067ZM243.219 12.6321V13.1045H244.07V12.6321H243.219ZM244.07 13.8162H243.213V14.2974H244.064L244.07 13.8162Z" fill="black"/>
<path d="M248.261 16.1405C248.964 15.1687 249.551 14.1185 250.011 13.011C250.259 13.3012 250.555 13.5468 250.886 13.7372C250.478 14.6682 250.01 15.5713 249.483 16.4409C249.518 16.5062 249.54 16.5775 249.547 16.6509C249.547 16.718 249.492 16.7442 249.434 16.7442C249.363 16.7387 249.296 16.7167 249.235 16.6801L248.261 16.1405ZM248.874 10.6485C249.496 10.935 250.09 11.2776 250.65 11.6723C250.419 11.9685 250.213 12.2836 250.035 12.6143C249.489 12.2409 248.91 11.9187 248.305 11.6519L248.874 10.6485ZM249.553 8.38819C250.162 8.64456 250.728 8.99168 251.233 9.41775C250.997 9.70941 250.694 10.1556 250.562 10.3452C250.047 9.95085 249.5 9.59966 248.926 9.29525L249.553 8.38819ZM255.795 13.1801H257.174V14.2126H255.246C255.867 14.9397 256.609 15.5535 257.44 16.0267C257.125 16.2811 256.839 16.5697 256.588 16.8871C255.714 16.3013 254.934 15.5875 254.272 14.7697L255.025 14.2126H252.823L253.634 14.7609C253.657 14.7705 253.677 14.7861 253.693 14.806C253.708 14.826 253.718 14.8497 253.721 14.8747C253.721 14.968 253.59 15.0264 253.429 14.9972C252.844 15.7397 252.138 16.3786 251.341 16.8871C251.051 16.574 250.72 16.3004 250.358 16.0734C251.229 15.6003 252.005 14.9693 252.645 14.2126H250.942V13.1801H251.802V8.75568L252.33 8.86943C253.554 8.86985 254.766 8.63313 255.9 8.17236L256.571 9.08817C256.62 9.14176 256.652 9.20872 256.664 9.28067C256.664 9.35358 256.579 9.374 256.521 9.374C256.419 9.36712 256.319 9.33827 256.229 9.28942C255.156 9.59839 254.047 9.77278 252.931 9.80857V10.5056H256.909V11.5556H255.786L255.795 13.1801ZM254.686 11.5644H252.937V13.1801H254.686V11.5644Z" fill="black"/>
<path d="M261.578 16.3564V16.7997H260.412V8.46411H268.476V16.791H267.333V16.3564H261.578ZM267.344 15.3181V9.45867H261.578V15.3181H267.344ZM264.973 11.7715H266.598V12.6465H266.108C266.351 12.9176 266.569 13.2105 266.758 13.5215C266.685 13.5681 266.437 13.7402 266.277 13.854H267.061V14.7698H261.899V13.8627H263.839V12.6494H262.316V11.7744H263.83V10.8995H261.995V10.0041H266.954V10.9111H264.959L264.973 11.7715ZM265.749 12.6465H264.973V13.8598H265.793C265.615 13.5716 265.413 13.2993 265.189 13.0461L265.749 12.6465Z" fill="black"/>
<path d="M280.108 15.4408V16.5579H271.486V15.4408H275.966C276.446 14.1023 276.816 12.727 277.072 11.3284L278.253 11.6492C278.311 11.6697 278.413 11.6959 278.413 11.7922C278.413 11.8884 278.34 11.8942 278.206 11.9438C278.11 12.3026 277.687 13.7784 277.594 14.0788C277.366 14.8167 277.241 15.1492 277.139 15.4408H280.108ZM275.173 8.13184L276.392 8.161C276.439 8.161 276.57 8.161 276.57 8.27475C276.57 8.3885 276.506 8.39725 276.41 8.44683V9.92262H279.644V11.028H271.9V9.92262H275.173V8.13184ZM274.038 11.4976C274.557 12.5455 274.931 13.6591 275.15 14.8079C274.925 14.8633 274.167 15.0821 274.006 15.1287C273.84 13.9883 273.485 12.8834 272.956 11.8592L274.038 11.4976Z" fill="black"/>
<path d="M282.838 11.6724V10.5057H286.542V8.08496L287.781 8.15204C287.924 8.15204 287.988 8.19871 287.988 8.27454C287.988 8.35037 287.886 8.39704 287.781 8.4262V10.5057H291.43V11.6724H287.81C288.236 13.0607 289.105 14.7727 291.564 16.0123C291.191 16.2497 290.877 16.5688 290.645 16.9456C289.636 16.4906 288.02 15.1023 287.178 13.2211C286.431 14.896 285.085 16.2309 283.403 16.9631C283.21 16.5517 282.922 16.1919 282.563 15.9131C283.357 15.601 285.807 14.6181 286.41 11.6694L282.838 11.6724Z" fill="black"/>
<path d="M303 13.6151V14.5892H299.401V15.8754C299.401 16.87 298.701 16.905 297.167 16.8875C297.099 16.4945 296.976 16.1134 296.799 15.7558C296.96 15.7558 297.674 15.7937 297.829 15.7937C298.237 15.7937 298.237 15.7383 298.237 15.2454V14.5892H294.533V13.6151H298.237V12.9267L298.73 12.9909C299.039 12.7547 299.41 12.463 299.57 12.3318H296.234V11.3809H300.941L301.282 12.0518C300.699 12.6255 300.07 13.1503 299.401 13.6209L303 13.6151ZM298.369 9.88182C298.124 9.37684 297.809 8.90935 297.432 8.49352L298.444 8.02979C298.815 8.44923 299.132 8.91255 299.389 9.40933C299.287 9.46766 298.541 9.85265 298.5 9.88182H299.9C300.325 9.37099 300.696 8.81669 301.005 8.22811L302.131 8.5956C302.189 8.61602 302.283 8.65394 302.283 8.73852C302.283 8.8231 302.131 8.86976 301.962 8.89018C301.629 9.40933 301.405 9.71266 301.282 9.88182H302.907V12.2822H301.781V10.7976H295.732V12.2909H294.627V9.88182H296.064C295.829 9.47154 295.559 9.08135 295.259 8.71518L296.213 8.22228C296.583 8.61438 296.896 9.05731 297.141 9.53766C296.927 9.63145 296.722 9.74164 296.525 9.86724L298.369 9.88182Z" fill="black"/>
<path d="M203.618 7.20719C203.588 7.14572 203.541 7.09378 203.484 7.0572C203.426 7.02062 203.359 7.00085 203.291 7.00011H200.838C200.782 6.99873 200.727 7.01011 200.677 7.03336C200.626 7.05662 200.582 7.09114 200.546 7.13427L197.326 11.6492L194.069 7.13136C194.033 7.08924 193.988 7.05562 193.938 7.03292C193.887 7.01022 193.832 6.99902 193.777 7.00011H191.362C191.294 7.00051 191.227 7.02015 191.169 7.05676C191.111 7.09338 191.065 7.14551 191.035 7.20719C191.007 7.26896 190.996 7.33738 191.005 7.40482C191.013 7.47227 191.04 7.53612 191.082 7.58926L195.97 14.1428V17.704C195.97 17.7516 195.979 17.7988 195.997 17.8429C196.015 17.8869 196.042 17.9269 196.075 17.9606C196.109 17.9943 196.149 18.0209 196.193 18.0389C196.237 18.057 196.284 18.066 196.332 18.0657H198.321C198.369 18.0659 198.416 18.0568 198.46 18.0387C198.504 18.0207 198.544 17.9942 198.578 17.9607C198.645 17.8919 198.682 17.7999 198.683 17.704V14.1428L203.568 7.58926C203.611 7.53656 203.639 7.47284 203.647 7.40531C203.656 7.33778 203.646 7.26915 203.618 7.20719Z" fill="#005BAC"/>
<path d="M208.651 7.00583C208.726 7.01086 208.796 7.04183 208.85 7.09333L214.776 13.6382C214.82 13.6877 214.855 13.6732 214.855 13.609V7.11958C214.855 7.08787 214.868 7.05745 214.89 7.03502C214.913 7.0126 214.943 7 214.975 7H217.346C217.378 7 217.408 7.0126 217.43 7.03502C217.453 7.05745 217.465 7.08787 217.465 7.11958V17.911C217.465 17.9265 217.462 17.9419 217.456 17.9563C217.45 17.9706 217.441 17.9836 217.43 17.9945C217.419 18.0054 217.406 18.0139 217.391 18.0196C217.377 18.0253 217.361 18.028 217.346 18.0276H215.36C215.286 18.0243 215.216 17.993 215.164 17.9401L208.701 10.7332C208.657 10.6866 208.622 10.6982 208.622 10.7653V17.9168C208.622 17.9324 208.619 17.9478 208.613 17.9621C208.607 17.9765 208.598 17.9895 208.587 18.0003C208.576 18.0112 208.563 18.0197 208.548 18.0254C208.534 18.0311 208.518 18.0339 208.503 18.0335H206.184C206.168 18.0339 206.153 18.0311 206.138 18.0254C206.124 18.0197 206.111 18.0112 206.1 18.0003C206.089 17.9895 206.08 17.9765 206.074 17.9621C206.068 17.9478 206.064 17.9324 206.064 17.9168V7.12541C206.064 7.0937 206.077 7.06328 206.099 7.04086C206.122 7.01843 206.152 7.00583 206.184 7.00583H208.651Z" fill="black"/>
<path d="M231.109 7.00565H228.758C228.727 7.00564 228.697 7.01784 228.675 7.03964C228.652 7.06144 228.64 7.09111 228.639 7.12232V13.2472C228.639 14.1805 228.37 14.7055 227.93 15.0642C227.49 15.4229 226.731 15.6475 225.673 15.6475C224.614 15.6475 223.864 15.4142 223.415 15.0642C222.966 14.7142 222.715 14.1892 222.704 13.2472V7.12232C222.704 7.10675 222.7 7.09133 222.694 7.07699C222.688 7.06264 222.679 7.04965 222.668 7.03877C222.657 7.0279 222.644 7.01937 222.629 7.01368C222.615 7.00799 222.599 7.00526 222.584 7.00565H220.236C220.205 7.00564 220.175 7.01784 220.153 7.03964C220.13 7.06144 220.117 7.09111 220.116 7.12232V13.2472C220.099 15.1284 220.913 16.4554 222.047 17.1787C223.182 17.902 224.506 18.0537 225.673 18.0537C226.839 18.0537 228.169 17.8787 229.298 17.1787C230.427 16.4787 231.243 15.1371 231.226 13.2472V7.12232C231.226 7.09137 231.214 7.0617 231.192 7.03982C231.17 7.01794 231.14 7.00565 231.109 7.00565Z" fill="black"/>
</g>
<g clip-path="url(#clip1_380:474)">
<path d="M7.92064 16.6705C6.92617 17.5602 5.63993 18.0544 4.30555 18.0594C1.52777 18.0594 0 16.5316 0 14.4443C0 11.9443 1.80556 10.1387 7.64286 10.1387C7.64286 8.74986 6.80953 7.91651 5.55953 7.91651C5.1236 7.8836 4.68992 8.00455 4.33393 8.25831C3.97795 8.51207 3.72217 8.88258 3.6111 9.3054H0.436498C0.714276 6.92445 2.65873 4.99986 5.85715 4.99986C6.52079 4.9736 7.18268 5.08497 7.80119 5.32695C8.4197 5.56893 8.98144 5.93631 9.45107 6.40594C9.92071 6.87557 10.2881 7.4373 10.53 8.0558C10.772 8.67431 10.8834 9.33621 10.8571 9.99985V17.9364H8.47618L7.92064 16.6705ZM7.64286 12.361C3.89286 12.361 3.19444 13.0554 3.19444 14.1665C3.19444 14.8649 3.89286 15.5594 4.86508 15.5594C6.53175 15.5594 7.64286 14.4443 7.64286 12.9165V12.361Z" fill="#354C57"/>
<path d="M13.751 5.13912H16.1121L16.6676 6.38913C17.4708 5.55215 18.5645 5.05506 19.7232 5.00024C22.366 5.00024 23.3383 6.66692 23.3383 6.66692C23.3383 6.66692 24.866 5.00024 27.0883 5.00024C29.866 5.00024 31.6716 6.80579 31.6716 10.278V17.9209H28.497V10.5558C28.497 9.02802 27.5248 8.0558 26.4137 8.0558C25.3026 8.0558 24.3303 9.02802 24.3303 10.5558V17.9209H21.1359V10.5558C21.1359 9.02802 20.1637 8.0558 19.0486 8.0558C17.9335 8.0558 16.9653 9.02802 16.9653 10.5558V17.9209H13.7906L13.751 5.13912Z" fill="#354C57"/>
<path d="M39.9995 0.436768H43.3329V17.9407H39.9995V0.436768Z" fill="#354C57"/>
<path d="M52.2212 1.80556C52.2212 1.44846 52.3271 1.09938 52.5255 0.802454C52.7239 0.505532 53.0059 0.274096 53.3358 0.137438C53.6657 0.000779366 54.0288 -0.0349727 54.379 0.0346951C54.7292 0.104363 55.051 0.276326 55.3035 0.528838C55.556 0.781349 55.7279 1.10306 55.7976 1.4533C55.8673 1.80355 55.8315 2.1666 55.6949 2.49652C55.5582 2.82644 55.3268 3.10844 55.0299 3.30683C54.733 3.50523 54.3839 3.61111 54.0268 3.61111C53.5505 3.60295 53.0959 3.41011 52.7591 3.07325C52.4222 2.7364 52.2294 2.28188 52.2212 1.80556ZM52.3601 5.13888H55.5545V17.9206H52.3601V5.13888Z" fill="#F06356"/>
<path d="M58.6118 5.13912H60.9928L61.5324 6.38913C62.5462 5.53403 63.8181 5.04483 65.1435 5.00024C68.1991 5.00024 70.2824 7.08359 70.2824 10.4169V17.9209H67.1078V10.8336C67.1078 9.16692 65.9967 8.0558 64.469 8.0558C62.9412 8.0558 61.8301 9.16692 61.8301 10.8336V17.9209H58.6356L58.6118 5.13912Z" fill="#F06356"/>
<path d="M73.1933 8.33316H71.6655V5.41648H73.1933V4.86094C73.1933 2.08316 74.9989 0.277588 77.4989 0.277588C78.0202 0.282611 78.5369 0.376556 79.0267 0.555371V3.33315C78.7616 3.23582 78.479 3.19526 78.1973 3.21411C77.9553 3.19499 77.7121 3.22858 77.4843 3.31256C77.2566 3.39654 77.0498 3.52889 76.8781 3.70052C76.7065 3.87215 76.5742 4.07897 76.4902 4.30671C76.4062 4.53444 76.3726 4.77769 76.3917 5.01966V5.41648H79.0306V8.33316H76.3917V17.9205H73.1973L73.1933 8.33316Z" fill="#F06356"/>
<path d="M92.4836 14.028C92.0536 15.1971 91.2791 16.2083 90.2624 16.9281C89.2458 17.6479 88.0348 18.0425 86.7892 18.0598C85.0853 18.0177 83.4653 17.3114 82.275 16.0914C81.0847 14.8714 80.4185 13.2345 80.4185 11.53C80.4185 9.82556 81.0847 8.18862 82.275 6.96863C83.4653 5.74864 85.0853 5.04225 86.7892 5.00024C90.1225 5.00024 92.9003 7.63914 92.9003 11.528C92.8886 11.9476 92.8435 12.3656 92.7654 12.778H83.8884C84.1662 14.028 85.1384 15.0042 86.8051 15.0042C88.4717 15.0042 89.1662 14.028 89.1662 14.028H92.4836ZM89.8447 10.5558C89.7005 9.85191 89.3177 9.21939 88.7609 8.76517C88.2042 8.31095 87.5077 8.06288 86.7892 8.06288C86.0707 8.06288 85.3742 8.31095 84.8175 8.76517C84.2607 9.21939 83.8779 9.85191 83.7337 10.5558H89.8447Z" fill="#F06356"/>
<path d="M106.374 13.1947C105.818 15.6987 103.457 18.0598 100.422 18.0598C98.7176 18.0177 97.0976 17.3114 95.9073 16.0914C94.717 14.8714 94.0508 13.2345 94.0508 11.53C94.0508 9.82556 94.717 8.18862 95.9073 6.96863C97.0976 5.74864 98.7176 5.04225 100.422 5.00024C103.477 5.00024 105.838 7.3812 106.374 9.86136H103.199C102.964 9.3212 102.576 8.86204 102.082 8.54101C101.588 8.21998 101.011 8.05126 100.422 8.0558C98.616 8.0558 97.2469 9.44469 97.2469 11.528C97.2469 13.6114 98.6358 15.0042 100.422 15.0042C101.011 15.0084 101.589 14.8391 102.083 14.5173C102.577 14.1956 102.965 13.7356 103.199 13.1947H106.374Z" fill="#F06356"/>
<path d="M109.027 8.05547H107.083V5.41657H107.916C108.122 5.43844 108.33 5.41397 108.525 5.34493C108.721 5.27588 108.898 5.16402 109.045 5.01754C109.191 4.87106 109.303 4.69368 109.372 4.49838C109.441 4.30307 109.466 4.0948 109.444 3.8888V2.08325H112.221V5.13879H114.999V8.05547H112.221V13.3332C112.202 13.5752 112.236 13.8185 112.32 14.0462C112.404 14.2739 112.536 14.4807 112.708 14.6524C112.879 14.824 113.086 14.9564 113.314 15.0403C113.542 15.1243 113.785 15.1579 114.027 15.1388C114.311 15.1516 114.595 15.1057 114.86 15.0039V17.7817C114.371 17.9605 113.854 18.0544 113.333 18.0594C110.833 18.0594 109.027 16.2539 109.027 13.4721V8.05547Z" fill="#F06356"/>
<path d="M128.751 14.028C128.32 15.1996 127.543 16.2125 126.523 16.9325C125.503 17.6525 124.289 18.0456 123.041 18.0598C121.337 18.0177 119.717 17.3114 118.526 16.0914C117.336 14.8714 116.67 13.2345 116.67 11.53C116.67 9.82556 117.336 8.18862 118.526 6.96863C119.717 5.74864 121.337 5.04225 123.041 5.00024C126.374 5.00024 129.152 7.63914 129.152 11.528C129.14 11.9478 129.093 12.3658 129.013 12.778H120.124C120.402 14.028 121.374 15.0042 123.041 15.0042C124.707 15.0042 125.422 14.028 125.422 14.028H128.751ZM126.112 10.5558C125.968 9.85191 125.585 9.21939 125.028 8.76517C124.472 8.31095 123.775 8.06288 123.057 8.06288C122.338 8.06288 121.642 8.31095 121.085 8.76517C120.528 9.21939 120.145 9.85191 120.001 10.5558H126.112Z" fill="#F06356"/>
<path d="M140.417 16.6709C139.424 17.56 138.139 18.0542 136.806 18.0598C133.612 18.0598 130.834 15.282 130.834 11.528C130.834 7.77407 133.612 5.00026 136.806 5.00026C138.033 4.99312 139.22 5.43811 140.14 6.25027V0.436768H143.334V17.9407H140.953L140.417 16.6709ZM140.417 11.5122C140.417 9.42882 139.028 8.03993 137.243 8.03993C135.457 8.03993 134.068 9.42882 134.068 11.5122C134.068 13.5955 135.457 14.9883 137.243 14.9883C139.028 14.9883 140.417 13.6153 140.417 11.5479V11.5122Z" fill="#F06356"/>
<path d="M152.778 13.0554C152.778 7.91648 156.667 7.91648 156.667 5.41648C156.667 4.16648 155.834 3.33315 154.445 3.33315C153.195 3.33315 152.222 4.30538 152.222 5.97205H148.889C149.028 2.49982 151.25 0.277588 154.445 0.277588C157.917 0.277588 160 2.36092 160 5.1387C160 9.02759 155.972 9.02759 155.972 13.0554H152.778ZM154.445 14.4443C154.803 14.4435 155.153 14.5489 155.451 14.7473C155.749 14.9457 155.982 15.228 156.119 15.5586C156.257 15.8891 156.293 16.2531 156.224 16.6044C156.155 16.9556 155.983 17.2784 155.73 17.5319C155.477 17.7854 155.154 17.9581 154.803 18.0283C154.452 18.0984 154.088 18.0628 153.757 17.926C153.426 17.7891 153.143 17.5572 152.944 17.2595C152.745 16.9618 152.639 16.6118 152.639 16.2538C152.647 15.7771 152.84 15.3221 153.177 14.9846C153.513 14.6471 153.968 14.4534 154.445 14.4443Z" fill="#354C57"/>
<path d="M44.6428 0.416748H38.6904V2.7977H44.6428V0.416748Z" fill="#354C57"/>
<path d="M44.6428 15.5354H38.6904V17.9164H44.6428V15.5354Z" fill="#354C57"/>
</g>
<path d="M172 17.8364H173.117L173.34 17.3338C173.34 17.3338 173.899 17.8922 174.792 17.8922C176.076 17.8922 177.193 16.7754 177.193 15.2677C177.193 13.7599 176.076 12.6431 174.792 12.6431C174.01 12.6431 173.508 13.0898 173.508 13.0898V10.8003H172V17.8364ZM174.569 16.4962C173.954 16.4962 173.452 15.9936 173.452 15.2677C173.452 14.5417 173.954 14.0391 174.569 14.0391C175.183 14.0391 175.686 14.5417 175.686 15.2677C175.686 15.9936 175.183 16.4962 174.569 16.4962Z" fill="#677881"/>
<path d="M178.421 19.6233C178.421 19.6233 178.7 19.6792 178.924 19.6792C179.873 19.6792 180.42 19.1208 180.934 17.8364L183 12.6989H181.381L180.264 15.8819L179.147 12.6989H177.527L179.482 17.613C179.314 18.0598 179.035 18.339 178.421 18.339V19.6233Z" fill="#677881"/>
<defs>
<clipPath id="clip0_380:474">
<rect width="112" height="11.0685" fill="white" transform="translate(191 7)"/>
</clipPath>
<clipPath id="clip1_380:474">
<rect width="160" height="18.0556" fill="white"/>
</clipPath>
</defs>
</svg>
