<svg width="36" height="38" viewBox="0 0 36 38" fill="none" xmlns="http://www.w3.org/2000/svg">
<path d="M26.144 0.0724705C25.3703 0.323844 24.9473 1.1548 25.1982 1.92859L25.8206 3.84411C23.3939 2.67068 20.7253 2.05611 18.0003 2.05611C8.09048 2.05611 0.0283191 10.1181 0.0283195 20.0281C0.02832 29.9378 8.09048 38 18.0003 38C27.9101 38 35.9722 29.9378 35.9722 20.0281C35.9722 19.2145 35.3126 18.5549 34.4991 18.5549C33.6857 18.5549 33.026 19.2145 33.026 20.0281C33.026 28.3133 26.2856 35.0538 18.0003 35.0538C9.71502 35.0538 2.97454 28.3133 2.97454 20.0281C2.97454 11.7427 9.71502 5.00233 18.0003 5.00233C20.2832 5.00233 22.5182 5.51744 24.5489 6.50172L22.5341 7.15613C21.7606 7.4075 21.3373 8.23869 21.5884 9.01225C21.8399 9.78604 22.671 10.2096 23.4446 9.95822L28.7912 8.22113C29.4138 8.01902 29.8097 7.44156 29.8097 6.8205C29.8097 6.66977 29.7863 6.51621 29.7373 6.36501L28.0004 1.01833C27.749 0.244651 26.918 -0.178899 26.144 0.0724705Z" fill="white"/>
</svg>
