<svg width="200" height="59" viewBox="0 0 200 59" fill="none" xmlns="http://www.w3.org/2000/svg">
<g clip-path="url(#clip0_356:1266)">
<path d="M9.9008 20.8381C8.65771 21.9503 7.04991 22.568 5.38193 22.5742C1.90971 22.5742 0 20.6645 0 18.0554C0 14.9304 2.25695 12.6734 9.55357 12.6734C9.55357 10.9373 8.51191 9.89564 6.94941 9.89564C6.4045 9.85451 5.8624 10.0057 5.41741 10.3229C4.97243 10.6401 4.65271 11.1032 4.51388 11.6318H0.545623C0.892845 8.65556 3.32342 6.24982 7.32143 6.24982C8.15098 6.217 8.97835 6.35621 9.75148 6.65869C10.5246 6.96117 11.2268 7.42039 11.8138 8.00743C12.4009 8.59447 12.8601 9.29662 13.1626 10.0698C13.465 10.8429 13.6042 11.6703 13.5714 12.4998V22.4204H10.5952L9.9008 20.8381ZM9.55357 15.4512C4.86608 15.4512 3.99305 16.3193 3.99305 17.7081C3.99305 18.5812 4.86608 19.4492 6.08135 19.4492C8.16469 19.4492 9.55357 18.0554 9.55357 16.1457V15.4512Z" fill="#354C57"/>
<path d="M17.1885 6.42384H20.1398L20.8343 7.98636C21.8383 6.94013 23.2053 6.31877 24.6537 6.25024C27.9573 6.25024 29.1726 8.33358 29.1726 8.33358C29.1726 8.33358 31.0823 6.25024 33.8601 6.25024C37.3323 6.25024 39.5893 8.50718 39.5893 12.8475V22.401H35.621V13.1947C35.621 11.285 34.4057 10.0697 33.0168 10.0697C31.6279 10.0697 30.4127 11.285 30.4127 13.1947V22.401H26.4196V13.1947C26.4196 11.285 25.2043 10.0697 23.8105 10.0697C22.4166 10.0697 21.2063 11.285 21.2063 13.1947V22.401H17.2381L17.1885 6.42384Z" fill="#354C57"/>
<path d="M49.9995 0.545898H54.1662V22.4259H49.9995V0.545898Z" fill="#354C57"/>
<path d="M65.2769 2.25695C65.2769 1.81057 65.4092 1.37422 65.6572 1.00307C65.9052 0.631915 66.2577 0.34262 66.6701 0.171797C67.0825 0.000974208 67.5363 -0.0437158 67.9741 0.0433689C68.4119 0.130454 68.8141 0.345408 69.1297 0.661047C69.4453 0.976686 69.6603 1.37882 69.7474 1.81663C69.8345 2.25443 69.7898 2.70825 69.619 3.12065C69.4481 3.53305 69.1589 3.88555 68.7877 4.13354C68.4166 4.38154 67.9802 4.51389 67.5338 4.51389C66.9384 4.50369 66.3702 4.26263 65.9492 3.84157C65.5281 3.4205 65.2871 2.85235 65.2769 2.25695V2.25695ZM65.4505 6.4236H69.4435V22.4008H65.4505V6.4236Z" fill="#F06356"/>
<path d="M73.2651 6.42384H76.2413L76.9159 7.98636C78.1831 6.91748 79.773 6.30598 81.4298 6.25024C85.2492 6.25024 87.8534 8.85442 87.8534 13.0211V22.401H83.8852V13.5419C83.8852 11.4586 82.4963 10.0697 80.5866 10.0697C78.6768 10.0697 77.2879 11.4586 77.2879 13.5419V22.401H73.2949L73.2651 6.42384Z" fill="#F06356"/>
<path d="M91.4913 10.4166H89.5815V6.77079H91.4913V6.07636C91.4913 2.60414 93.7482 0.347168 96.8732 0.347168C97.5249 0.353446 98.1708 0.470878 98.783 0.694396V4.16662C98.4516 4.04496 98.0984 3.99426 97.7462 4.01782C97.4438 3.99392 97.1397 4.03591 96.8551 4.14088C96.5704 4.24586 96.3119 4.41129 96.0973 4.62584C95.8828 4.84038 95.7173 5.0989 95.6124 5.38357C95.5074 5.66824 95.4654 5.97229 95.4893 6.27475V6.77079H98.7879V10.4166H95.4893V22.4008H91.4962L91.4913 10.4166Z" fill="#F06356"/>
<path d="M115.604 17.535C115.067 18.9963 114.099 20.2603 112.828 21.16C111.557 22.0598 110.043 22.553 108.486 22.5746C106.356 22.5221 104.331 21.6391 102.844 20.1142C101.356 18.5892 100.523 16.543 100.523 14.4125C100.523 12.2819 101.356 10.2357 102.844 8.71072C104.331 7.18574 106.356 6.30275 108.486 6.25024C112.653 6.25024 116.125 9.54886 116.125 14.41C116.111 14.9345 116.054 15.4569 115.957 15.9725H104.86C105.208 17.535 106.423 18.7552 108.506 18.7552C110.59 18.7552 111.458 17.535 111.458 17.535H115.604ZM112.306 13.1947C112.126 12.3148 111.647 11.5242 110.951 10.9564C110.255 10.3886 109.385 10.0785 108.486 10.0785C107.588 10.0785 106.718 10.3886 106.022 10.9564C105.326 11.5242 104.847 12.3148 104.667 13.1947H112.306Z" fill="#F06356"/>
<path d="M132.967 16.4933C132.273 19.6233 129.322 22.5746 125.527 22.5746C123.397 22.5221 121.372 21.6391 119.884 20.1142C118.396 18.5892 117.563 16.543 117.563 14.4125C117.563 12.2819 118.396 10.2357 119.884 8.71072C121.372 7.18574 123.397 6.30275 125.527 6.25024C129.346 6.25024 132.298 9.22643 132.967 12.3266H128.999C128.705 11.6514 128.22 11.0775 127.602 10.6762C126.985 10.2749 126.263 10.064 125.527 10.0697C123.27 10.0697 121.559 11.8058 121.559 14.41C121.559 17.0141 123.295 18.7552 125.527 18.7552C126.264 18.7605 126.986 18.5488 127.603 18.1466C128.221 17.7444 128.706 17.1694 128.999 16.4933H132.967Z" fill="#F06356"/>
<path d="M136.284 10.0695H133.853V6.7709H134.895C135.152 6.79824 135.413 6.76765 135.657 6.68134C135.901 6.59504 136.123 6.45521 136.306 6.27211C136.489 6.08901 136.629 5.86729 136.715 5.62316C136.801 5.37903 136.832 5.11868 136.804 4.86119V2.60425H140.277V6.42367H143.749V10.0695H140.277V16.6667C140.253 16.9692 140.295 17.2733 140.4 17.5579C140.505 17.8426 140.67 18.1011 140.885 18.3157C141.099 18.5302 141.358 18.6956 141.642 18.8006C141.927 18.9056 142.231 18.9476 142.534 18.9237C142.889 18.9397 143.243 18.8823 143.575 18.755V22.2273C142.963 22.4508 142.317 22.5682 141.666 22.5745C138.541 22.5745 136.284 20.3175 136.284 16.8403V10.0695Z" fill="#F06356"/>
<path d="M160.939 17.535C160.4 18.9994 159.429 20.2656 158.155 21.1656C156.88 22.0656 155.362 22.557 153.801 22.5746C151.671 22.5221 149.646 21.6391 148.159 20.1142C146.671 18.5892 145.838 16.543 145.838 14.4125C145.838 12.2819 146.671 10.2357 148.159 8.71072C149.646 7.18574 151.671 6.30275 153.801 6.25024C157.968 6.25024 161.44 9.54886 161.44 14.41C161.425 14.9347 161.367 15.4572 161.267 15.9725H150.156C150.503 17.535 151.718 18.7552 153.801 18.7552C155.885 18.7552 156.778 17.535 156.778 17.535H160.939ZM157.641 13.1947C157.46 12.3148 156.982 11.5242 156.286 10.9564C155.59 10.3886 154.719 10.0785 153.821 10.0785C152.923 10.0785 152.052 10.3886 151.357 10.9564C150.661 11.5242 150.182 12.3148 150.002 13.1947H157.641Z" fill="#F06356"/>
<path d="M175.521 20.8385C174.28 21.95 172.674 22.5677 171.007 22.5747C167.014 22.5747 163.542 19.1025 163.542 14.41C163.542 9.71753 167.014 6.25026 171.007 6.25026C172.541 6.24134 174.024 6.79758 175.174 7.81278V0.545898H179.167V22.4259H176.191L175.521 20.8385ZM175.521 14.3901C175.521 11.786 173.785 10.0499 171.553 10.0499C169.321 10.0499 167.585 11.786 167.585 14.3901C167.585 16.9943 169.321 18.7354 171.553 18.7354C173.785 18.7354 175.521 17.0191 175.521 14.4348V14.3901Z" fill="#F06356"/>
<path d="M190.973 16.3194C190.973 9.89578 195.834 9.89578 195.834 6.77078C195.834 5.20828 194.792 4.16662 193.056 4.16662C191.494 4.16662 190.278 5.38191 190.278 7.46524H186.112C186.285 3.12496 189.063 0.347168 193.056 0.347168C197.397 0.347168 200.001 2.95133 200.001 6.42356C200.001 11.2847 194.966 11.2847 194.966 16.3194H190.973ZM193.056 18.0555C193.504 18.0545 193.942 18.1864 194.314 18.4343C194.687 18.6823 194.978 19.0352 195.149 19.4484C195.321 19.8616 195.367 20.3166 195.28 20.7556C195.194 21.1947 194.979 21.5982 194.662 21.9151C194.346 22.2319 193.943 22.4478 193.504 22.5355C193.065 22.6232 192.61 22.5787 192.197 22.4076C191.783 22.2366 191.43 21.9466 191.181 21.5746C190.932 21.2025 190.799 20.765 190.799 20.3174C190.809 19.7215 191.05 19.1528 191.471 18.731C191.892 18.3091 192.46 18.067 193.056 18.0555V18.0555Z" fill="#354C57"/>
<path d="M55.8038 0.520996H48.3633V3.49719H55.8038V0.520996Z" fill="#354C57"/>
<path d="M55.8038 19.4194H48.3633V22.3956H55.8038V19.4194Z" fill="#354C57"/>
</g>
<g clip-path="url(#clip1_356:1266)">
<path d="M69.1128 50.0489V49.3577H68.1503V48.544H69.1128V47.7419L70.1715 47.7886C70.2678 47.7886 70.3699 47.844 70.3699 47.9111C70.3699 47.9782 70.3144 48.0161 70.1803 48.0803V48.5352H71.0553V47.7419L72.1344 47.8003C72.1898 47.8003 72.324 47.8265 72.324 47.9228C72.324 48.019 72.2656 48.0161 72.1344 48.0744V48.5557H73.4469V49.3694H72.1344V50.0606H73.5927V50.9006H71.2011V51.411H73.129V54.6892H72.0236C72.5153 55.0654 73.0691 55.3526 73.6598 55.538C73.4126 55.787 73.2077 56.0746 73.0531 56.3896C72.3113 56.1059 71.6289 55.6866 71.0407 55.153L71.5132 54.6892H69.9907L70.3874 55.0392C70.4193 55.0611 70.4467 55.0891 70.4677 55.1217C70.4887 55.1542 70.5031 55.1907 70.5099 55.2288C70.5099 55.3134 70.4165 55.3309 70.1424 55.3134C69.5955 55.7659 68.9914 56.1444 68.3457 56.4392C68.1387 56.1439 67.898 55.8737 67.6283 55.6342C68.2503 55.4169 68.8319 55.0976 69.3491 54.6892H68.2495V51.3993H70.1336V50.8889H67.742V50.2735H66.9954V50.501C67.2881 51.1536 67.6984 51.7468 68.2057 52.251C67.9367 52.4701 67.7279 52.7542 67.5991 53.0764C67.373 52.7752 67.1748 52.454 67.007 52.1168V56.4275H65.995V52.7789C65.8351 53.2507 65.6259 53.7043 65.3708 54.1322C65.1377 53.8569 64.8596 53.6232 64.5483 53.4409C65.265 52.5074 65.7633 51.425 66.0066 50.2735H64.84V49.3111H66.0066V47.6836L66.9983 47.7419C67.1208 47.7419 67.2345 47.7886 67.2345 47.8907C67.2345 47.9928 67.0916 48.0336 67.0187 48.0715V49.3111H67.9345V50.0489H69.1128ZM69.3111 52.6739H70.1453V52.2014H69.317L69.3111 52.6739ZM70.1453 53.8668V53.3855H69.317V53.8668H70.1453ZM71.0669 50.0489V49.3577H70.1919V50.0489H71.0669ZM71.2186 52.2014V52.6739H72.0702V52.2014H71.2186ZM72.0702 53.3855H71.2128V53.8668H72.0644L72.0702 53.3855Z" fill="black"/>
<path d="M76.2612 55.7098C76.964 54.7381 77.5512 53.6878 78.0112 52.5803C78.2593 52.8705 78.5552 53.1161 78.8862 53.3066C78.4782 54.2375 78.0095 55.1407 77.4833 56.0102C77.5178 56.0755 77.5395 56.1468 77.5474 56.2202C77.5474 56.2873 77.492 56.3136 77.4337 56.3136C77.3635 56.308 77.2955 56.286 77.2354 56.2494L76.2612 55.7098ZM76.8737 50.2179C77.4957 50.5043 78.0903 50.847 78.6499 51.2416C78.4188 51.5378 78.2129 51.853 78.0345 52.1837C77.4889 51.8103 76.9099 51.4881 76.305 51.2212L76.8737 50.2179ZM77.5533 47.9575C78.162 48.2139 78.7285 48.561 79.2332 48.9871C78.997 49.2787 78.6937 49.725 78.5624 49.9146C78.0468 49.5202 77.4995 49.169 76.9262 48.8646L77.5533 47.9575ZM83.7948 52.7495H85.1743V53.782H83.2465C83.8671 54.509 84.6092 55.1228 85.4397 55.5961C85.1248 55.8504 84.8392 56.139 84.5881 56.4565C83.7144 55.8706 82.9338 55.1569 82.2723 54.339L83.0248 53.782H80.8228L81.6336 54.3303C81.6569 54.3398 81.6773 54.3554 81.6926 54.3754C81.708 54.3953 81.7178 54.419 81.7211 54.444C81.7211 54.5374 81.5898 54.5957 81.4294 54.5665C80.8441 55.309 80.1382 55.9479 79.3411 56.4565C79.0506 56.1433 78.7201 55.8697 78.3583 55.6427C79.2292 55.1696 80.0046 54.5386 80.6449 53.782H78.9416V52.7495H79.802V48.325L80.3299 48.4388C81.5537 48.4392 82.766 48.2025 83.8998 47.7417L84.5706 48.6575C84.6199 48.7111 84.6524 48.7781 84.6639 48.85C84.6639 48.9229 84.5793 48.9433 84.521 48.9433C84.4188 48.9365 84.3193 48.9076 84.2293 48.8588C83.1555 49.1677 82.0475 49.3421 80.9307 49.3779V50.075H84.9089V51.1249H83.786L83.7948 52.7495ZM82.6865 51.1337H80.9365V52.7495H82.6865V51.1337Z" fill="black"/>
<path d="M89.5783 55.9257V56.3691H88.4116V48.0334H96.476V56.3603H95.3327V55.9257H89.5783ZM95.3444 54.8874V49.028H89.5783V54.8874H95.3444ZM92.9732 51.3409H94.5977V52.2158H94.1077C94.3509 52.4869 94.5687 52.7798 94.7581 53.0908C94.6852 53.1375 94.4373 53.3096 94.2769 53.4233H95.0614V54.3391H89.8991V53.4321H91.8386V52.2188H90.3162V51.3438H91.8299V50.4688H89.9953V49.5734H94.9535V50.4805H92.9586L92.9732 51.3409ZM93.749 52.2158H92.9732V53.4291H93.7927C93.6155 53.1409 93.4135 52.8686 93.189 52.6154L93.749 52.2158Z" fill="black"/>
<path d="M108.108 55.0101V56.1272H99.4863V55.0101H103.966C104.446 53.6717 104.816 52.2963 105.072 50.8978L106.253 51.2186C106.311 51.239 106.413 51.2652 106.413 51.3615C106.413 51.4577 106.34 51.4636 106.206 51.5132C106.11 51.8719 105.687 53.3477 105.594 53.6481C105.366 54.386 105.241 54.7185 105.139 55.0101H108.108ZM103.173 47.7012L104.392 47.7303C104.439 47.7303 104.57 47.7303 104.57 47.8441C104.57 47.9578 104.506 47.9666 104.41 48.0162V49.492H107.644V50.5973H99.9005V49.492H103.173V47.7012ZM102.038 51.0669C102.557 52.1148 102.931 53.2285 103.15 54.3772C102.925 54.4327 102.167 54.6514 102.006 54.6981C101.84 53.5576 101.485 52.4528 100.956 51.4286L102.038 51.0669Z" fill="black"/>
<path d="M110.838 51.2417V50.0751H114.542V47.6543L115.781 47.7214C115.924 47.7214 115.988 47.768 115.988 47.8439C115.988 47.9197 115.886 47.9664 115.781 47.9955V50.0751H119.43V51.2417H115.81C116.236 52.63 117.105 54.342 119.564 55.5816C119.191 55.819 118.877 56.1382 118.645 56.5149C117.636 56.0599 116.02 54.6716 115.178 52.7904C114.431 54.4653 113.085 55.8002 111.403 56.5324C111.21 56.1211 110.922 55.7613 110.563 55.4824C111.357 55.1704 113.807 54.1875 114.41 51.2388L110.838 51.2417Z" fill="black"/>
<path d="M131 53.1844V54.1585H127.401V55.4447C127.401 56.4393 126.701 56.4743 125.167 56.4568C125.099 56.0639 124.976 55.6827 124.799 55.3252C124.96 55.3252 125.674 55.3631 125.829 55.3631C126.237 55.3631 126.237 55.3077 126.237 54.8148V54.1585H122.533V53.1844H126.237V52.4961L126.73 52.5602C127.039 52.324 127.41 52.0323 127.57 51.9011H124.234V50.9503H128.941L129.282 51.6211C128.699 52.1948 128.07 52.7196 127.401 53.1902L131 53.1844ZM126.369 49.4512C126.124 48.9462 125.809 48.4787 125.432 48.0629L126.444 47.5991C126.815 48.0186 127.132 48.4819 127.389 48.9787C127.287 49.037 126.541 49.422 126.5 49.4512H127.9C128.325 48.9403 128.696 48.386 129.005 47.7974L130.131 48.1649C130.189 48.1854 130.283 48.2233 130.283 48.3079C130.283 48.3924 130.131 48.4391 129.962 48.4595C129.629 48.9787 129.405 49.282 129.282 49.4512H130.907V51.8515H129.781V50.367H123.732V51.8603H122.627V49.4512H124.064C123.829 49.0409 123.559 48.6507 123.259 48.2845L124.213 47.7916C124.583 48.1837 124.896 48.6266 125.141 49.107C124.927 49.2008 124.722 49.311 124.525 49.4366L126.369 49.4512Z" fill="black"/>
<path d="M31.6175 46.7765C31.5877 46.7151 31.5413 46.6631 31.4836 46.6265C31.4259 46.59 31.3592 46.5702 31.2909 46.5694H28.838C28.7824 46.5681 28.7272 46.5794 28.6766 46.6027C28.6261 46.626 28.5815 46.6605 28.5464 46.7036L25.3264 51.2185L22.0686 46.7007C22.0328 46.6586 21.988 46.625 21.9375 46.6023C21.8871 46.5796 21.8323 46.5684 21.777 46.5694H19.362C19.2936 46.5699 19.2267 46.5895 19.169 46.6261C19.1112 46.6627 19.0649 46.7148 19.0354 46.7765C19.007 46.8383 18.9964 46.9067 19.0047 46.9742C19.0129 47.0416 19.0397 47.1055 19.082 47.1586L23.9702 53.7122V57.2733C23.9698 57.3209 23.9789 57.3681 23.997 57.4122C24.015 57.4562 24.0416 57.4963 24.0753 57.5299C24.1089 57.5636 24.149 57.5902 24.193 57.6083C24.2371 57.6263 24.2843 57.6354 24.3319 57.635H26.321C26.3686 57.6352 26.4157 57.6261 26.4598 57.6081C26.5038 57.5901 26.5439 57.5635 26.5777 57.53C26.6446 57.4613 26.6822 57.3693 26.6827 57.2733V53.7122L31.5679 47.1586C31.6111 47.1059 31.6386 47.0422 31.6473 46.9746C31.6561 46.9071 31.6458 46.8385 31.6175 46.7765Z" fill="#005BAC"/>
<path d="M36.6515 46.5752C36.7258 46.5802 36.796 46.6112 36.8498 46.6627L42.7763 53.2075C42.8201 53.2571 42.8551 53.2425 42.8551 53.1783V46.6889C42.8551 46.6572 42.8677 46.6268 42.8901 46.6044C42.9125 46.5819 42.9429 46.5693 42.9746 46.5693H45.3458C45.3775 46.5693 45.408 46.5819 45.4304 46.6044C45.4528 46.6268 45.4654 46.6572 45.4654 46.6889V57.4803C45.4654 57.4959 45.4623 57.5113 45.4563 57.5256C45.4502 57.54 45.4414 57.553 45.4302 57.5638C45.4191 57.5747 45.4059 57.5832 45.3914 57.5889C45.3769 57.5946 45.3614 57.5974 45.3458 57.597H43.3596C43.2858 57.5936 43.2159 57.5624 43.1642 57.5095L36.7011 50.3026C36.6573 50.2559 36.6223 50.2676 36.6223 50.3347V57.4861C36.6223 57.5017 36.6192 57.5171 36.6132 57.5315C36.6071 57.5458 36.5983 57.5588 36.5871 57.5697C36.576 57.5805 36.5628 57.5891 36.5483 57.5948C36.5338 57.6005 36.5183 57.6032 36.5027 57.6028H34.184C34.1685 57.6032 34.153 57.6005 34.1385 57.5948C34.124 57.5891 34.1108 57.5805 34.0996 57.5697C34.0885 57.5588 34.0796 57.5458 34.0736 57.5315C34.0676 57.5171 34.0644 57.5017 34.0645 57.4861V46.6947C34.0645 46.663 34.0771 46.6326 34.0995 46.6102C34.1219 46.5878 34.1523 46.5752 34.184 46.5752H36.6515Z" fill="black"/>
<path d="M59.1091 46.575H56.7584C56.7271 46.575 56.6972 46.5872 56.6748 46.609C56.6525 46.6308 56.6395 46.6604 56.6388 46.6917V52.8165C56.6388 53.7498 56.3705 54.2748 55.93 54.6335C55.4896 54.9923 54.7313 55.2168 53.6726 55.2168C52.6139 55.2168 51.8643 54.9835 51.4152 54.6335C50.966 54.2835 50.7152 53.7586 50.7035 52.8165V46.6917C50.7035 46.6761 50.7004 46.6607 50.6944 46.6463C50.6883 46.632 50.6795 46.619 50.6683 46.6081C50.6572 46.5972 50.644 46.5887 50.6295 46.583C50.615 46.5773 50.5995 46.5746 50.5839 46.575H48.2361C48.2049 46.575 48.1749 46.5872 48.1525 46.609C48.1302 46.6308 48.1172 46.6604 48.1165 46.6917V52.8165C48.099 54.6977 48.9127 56.0247 50.0473 56.7481C51.1818 57.4714 52.506 57.623 53.6726 57.623C54.8392 57.623 56.1692 57.448 57.2979 56.7481C58.4266 56.0481 59.2433 54.7064 59.2258 52.8165V46.6917C59.2258 46.6607 59.2135 46.631 59.1916 46.6092C59.1697 46.5873 59.1401 46.575 59.1091 46.575Z" fill="black"/>
</g>
<path d="M0 57.0361H1.11684L1.34021 56.5335C1.34021 56.5335 1.89863 57.0919 2.7921 57.0919C4.07647 57.0919 5.19331 55.9751 5.19331 54.4674C5.19331 52.9596 4.07647 51.8428 2.7921 51.8428C2.01031 51.8428 1.50773 52.2895 1.50773 52.2895V50H0V57.0361ZM2.56873 55.6959C1.95447 55.6959 1.45189 55.1933 1.45189 54.4674C1.45189 53.7414 1.95447 53.2388 2.56873 53.2388C3.18299 53.2388 3.68557 53.7414 3.68557 54.4674C3.68557 55.1933 3.18299 55.6959 2.56873 55.6959Z" fill="#677881"/>
<path d="M6.42096 58.823C6.42096 58.823 6.70017 58.8789 6.92353 58.8789C7.87285 58.8789 8.4201 58.3205 8.93385 57.0361L11 51.8986H9.38058L8.26374 55.0816L7.1469 51.8986H5.52748L7.48195 56.8127C7.31443 57.2595 7.03522 57.5387 6.42096 57.5387V58.823Z" fill="#677881"/>
<defs>
<clipPath id="clip0_356:1266">
<rect width="200" height="22.5694" fill="white"/>
</clipPath>
<clipPath id="clip1_356:1266">
<rect width="112" height="11.0685" fill="white" transform="translate(19 46.5693)"/>
</clipPath>
</defs>
</svg>
